<svg width="1200pt" height="1200pt" viewBox="0 0 1200 1200" version="1.1" xmlns="http://www.w3.org/2000/svg">
<g id="#ffffffff">
<path fill="#ffffff" opacity="1.00" d=" M 0.00 0.00 L 102.52 0.00 C 97.51 1.23 92.39 1.96 87.41 3.28 C 49.43 12.82 17.56 42.98 5.36 80.11 C 2.96 87.36 1.71 94.92 0.00 102.35 L 0.00 0.00 Z" />
<path fill="#ffffff" opacity="1.00" d=" M 1098.45 0.00 L 1200.00 0.00 L 1200.00 97.47 C 1197.26 82.99 1192.36 68.87 1184.57 56.31 C 1172.45 36.24 1154.23 19.96 1132.93 10.16 C 1122.09 4.81 1110.19 2.39 1098.45 0.00 Z" />
<path fill="#ffffff" opacity="1.00" d=" M 0.00 1098.44 C 1.82 1106.65 3.20 1114.98 6.06 1122.93 C 14.13 1146.00 29.84 1166.18 49.76 1180.26 C 63.89 1190.44 80.43 1196.87 97.51 1200.00 L 0.00 1200.00 L 0.00 1098.44 Z" />
<path fill="#ffffff" opacity="1.00" d=" M 1181.12 1150.04 C 1190.82 1136.28 1196.79 1120.27 1200.00 1103.82 L 1200.00 1200.00 L 1103.47 1200.00 C 1114.77 1197.71 1126.00 1194.60 1136.28 1189.26 C 1154.22 1180.26 1169.73 1166.55 1181.12 1150.04 Z" />
</g>
<g id="#111111ff">
<path fill="#111111" opacity="1.00" d=" M 102.52 0.00 L 1098.45 0.00 C 1110.19 2.39 1122.09 4.81 1132.93 10.16 C 1154.23 19.96 1172.45 36.24 1184.57 56.31 C 1192.36 68.87 1197.26 82.99 1200.00 97.47 L 1200.00 1103.82 C 1196.79 1120.27 1190.82 1136.28 1181.12 1150.04 C 1169.73 1166.55 1154.22 1180.26 1136.28 1189.26 C 1126.00 1194.60 1114.77 1197.71 1103.47 1200.00 L 97.51 1200.00 C 80.43 1196.87 63.89 1190.44 49.76 1180.26 C 29.84 1166.18 14.13 1146.00 6.06 1122.93 C 3.20 1114.98 1.82 1106.65 0.00 1098.44 L 0.00 102.35 C 1.71 94.92 2.96 87.36 5.36 80.11 C 17.56 42.98 49.43 12.82 87.41 3.28 C 92.39 1.96 97.51 1.23 102.52 0.00 M 144.04 285.00 C 144.00 464.32 143.96 643.65 144.02 822.97 C 183.35 823.00 222.68 822.96 262.01 823.00 C 266.70 823.05 271.34 822.31 276.01 822.05 C 287.04 821.74 298.09 822.29 309.12 821.79 C 317.09 820.84 325.21 821.60 333.09 819.88 C 354.58 817.27 375.70 811.98 396.25 805.17 C 403.62 802.42 411.37 800.16 417.90 795.64 C 415.34 783.71 412.88 771.35 414.65 759.11 C 415.80 744.37 422.07 730.52 430.30 718.43 C 440.91 703.48 456.35 692.09 473.91 686.70 C 489.14 681.11 505.64 683.19 521.42 684.54 C 529.93 664.28 534.75 642.71 539.46 621.32 C 540.97 607.17 543.71 593.16 544.96 578.99 C 544.83 562.99 545.37 546.99 545.00 530.99 C 545.15 520.58 542.60 510.41 542.01 500.05 C 539.58 484.54 537.50 468.89 533.27 453.73 C 528.77 440.64 525.12 427.21 519.35 414.60 C 507.16 387.43 489.24 362.81 467.01 342.99 C 458.28 335.57 448.73 329.20 439.24 322.82 C 431.36 317.57 422.58 313.95 414.00 310.04 C 398.73 302.68 382.42 297.66 365.91 293.93 C 358.22 292.09 350.34 291.32 342.65 289.50 C 333.72 288.50 324.79 287.49 315.88 286.37 C 309.61 285.53 303.28 286.52 297.02 285.68 C 294.04 285.29 291.05 284.98 288.04 285.00 C 240.04 285.06 192.04 284.97 144.04 285.00 M 877.02 374.03 C 875.73 373.80 874.92 374.96 873.93 375.52 C 872.23 375.75 870.52 375.72 868.84 375.81 C 864.83 377.90 860.24 377.57 855.95 378.44 C 853.07 380.33 849.45 379.80 846.52 381.50 C 844.78 382.53 842.74 382.64 840.79 382.81 C 838.24 384.16 835.46 384.99 832.68 385.68 C 831.20 386.96 829.31 387.42 827.49 387.93 C 825.93 388.89 824.22 389.52 822.46 389.93 C 820.53 391.21 818.37 391.97 816.13 392.43 C 813.17 395.07 808.20 394.88 806.00 398.42 C 805.52 398.48 804.57 398.61 804.09 398.67 C 803.02 399.53 801.96 400.37 800.90 401.23 C 799.02 401.75 797.20 402.50 795.61 403.65 C 787.99 408.91 780.63 414.55 773.47 420.43 C 770.17 423.19 767.67 426.73 764.79 429.90 C 759.27 435.41 754.78 441.84 750.25 448.16 C 747.54 453.51 743.59 458.21 741.66 463.93 C 740.49 464.99 740.09 466.49 739.73 467.98 C 737.75 470.58 737.28 473.92 735.81 476.79 C 734.01 483.79 731.07 490.54 730.48 497.83 C 727.41 511.32 727.33 525.32 728.36 539.06 C 728.59 543.47 730.48 547.58 730.83 551.98 C 731.19 553.97 730.84 556.32 732.38 557.90 C 732.32 567.20 738.38 574.86 740.39 583.63 C 740.73 583.53 741.42 583.34 741.76 583.24 C 742.13 584.68 742.52 586.13 742.94 587.58 C 744.46 589.24 745.03 591.42 745.40 593.61 C 745.74 593.56 746.42 593.48 746.76 593.44 C 746.82 594.37 746.94 596.23 747.00 597.16 C 747.61 597.33 748.83 597.66 749.44 597.83 C 749.44 598.53 749.45 599.93 749.45 600.63 C 749.85 600.57 750.64 600.46 751.03 600.41 C 752.09 603.36 753.66 606.31 756.44 607.97 C 756.48 608.57 756.56 609.77 756.60 610.37 C 757.08 610.36 758.03 610.34 758.51 610.34 C 758.57 610.88 758.69 611.97 758.75 612.51 C 764.00 617.63 768.33 624.08 774.84 627.66 C 774.80 628.07 774.73 628.90 774.69 629.31 C 775.34 629.43 776.63 629.67 777.28 629.79 C 777.41 630.33 777.68 631.40 777.82 631.93 C 779.25 632.20 780.77 632.51 780.94 634.27 C 781.28 634.28 781.97 634.30 782.31 634.30 C 783.53 636.87 786.02 638.64 788.76 639.32 C 788.67 639.63 788.50 640.27 788.41 640.58 C 790.29 640.92 792.11 641.60 793.12 643.36 C 793.65 643.42 794.73 643.53 795.26 643.59 C 795.48 644.08 795.92 645.06 796.14 645.54 C 804.85 650.65 813.44 655.92 822.43 660.55 C 825.40 662.14 829.09 662.21 831.66 664.53 C 836.83 665.84 841.51 668.50 846.38 670.60 C 849.37 673.21 853.91 672.72 856.67 675.58 C 860.08 676.06 862.81 678.25 866.01 679.31 C 867.33 680.46 868.96 680.98 870.64 681.38 C 876.35 684.03 882.05 686.77 887.95 689.02 C 893.61 692.29 900.01 693.86 905.66 697.16 C 909.95 698.88 914.23 700.60 918.47 702.44 C 921.28 703.60 924.38 704.38 926.65 706.55 C 931.91 707.87 936.64 710.65 941.40 713.12 C 942.86 713.28 944.20 713.82 945.22 714.95 C 949.67 717.44 953.74 720.71 958.70 722.22 C 962.14 724.93 965.79 727.33 969.37 729.86 C 969.50 730.40 969.78 731.48 969.92 732.02 C 970.98 732.25 972.05 732.48 973.13 732.72 C 975.74 736.80 979.38 740.14 981.47 744.57 C 986.02 751.27 988.78 759.00 989.98 766.95 C 989.69 776.68 991.06 786.66 988.40 796.17 C 987.90 797.98 987.98 800.08 986.54 801.49 C 983.23 811.08 976.60 819.32 969.43 826.38 C 962.47 831.41 955.24 836.31 947.05 839.14 C 943.85 840.88 939.98 840.74 936.93 842.75 C 934.75 843.85 932.14 843.53 929.94 844.62 C 925.47 846.19 920.66 845.80 916.00 845.99 C 903.97 845.96 891.93 846.09 879.90 845.93 C 875.02 845.52 869.77 846.19 865.32 843.75 C 862.49 843.51 859.66 843.40 856.83 843.29 C 856.67 842.73 856.35 841.62 856.19 841.06 C 853.32 840.89 850.08 841.43 847.93 839.10 C 841.42 839.10 836.12 834.48 829.81 833.89 C 829.50 833.51 828.88 832.73 828.57 832.35 C 826.48 832.05 824.43 831.51 822.75 830.20 C 821.01 828.55 817.63 829.89 816.81 827.23 C 815.21 826.92 813.52 826.78 812.41 825.46 C 811.94 825.29 811.02 824.93 810.56 824.75 C 806.06 821.17 800.02 819.73 795.94 815.64 C 795.37 815.59 794.23 815.49 793.66 815.43 C 793.50 814.89 793.18 813.80 793.02 813.26 C 788.56 812.29 785.21 808.76 781.43 806.36 C 778.95 805.01 776.71 803.24 774.59 801.39 C 771.16 797.77 766.71 795.30 763.38 791.59 C 761.26 790.10 759.20 788.53 757.00 787.17 C 755.87 790.34 753.05 792.39 751.14 795.06 C 746.68 800.94 741.50 806.28 737.41 812.44 C 734.54 814.83 732.12 817.99 730.28 821.25 C 727.83 822.42 726.71 825.04 724.87 826.91 C 717.85 834.97 711.44 843.57 704.07 851.35 C 708.64 854.20 711.90 858.63 716.32 861.70 C 719.45 863.85 722.04 866.73 725.30 868.73 C 726.89 871.90 730.88 872.39 733.00 875.11 C 735.73 875.68 737.14 878.38 739.62 879.46 C 740.76 879.92 741.55 880.83 742.17 881.89 C 743.11 882.11 744.06 882.34 745.03 882.59 C 746.93 885.36 750.36 886.90 753.58 887.56 C 753.57 888.02 753.53 888.96 753.52 889.43 C 754.21 889.41 755.60 889.38 756.29 889.36 C 756.52 889.74 756.97 890.48 757.19 890.86 C 760.77 891.90 763.12 895.03 766.46 896.55 C 769.12 898.01 772.49 898.17 774.62 900.52 C 778.01 901.75 781.64 902.82 784.47 905.14 C 789.57 907.36 794.68 909.63 800.11 910.96 C 807.03 914.31 814.35 917.31 822.13 917.73 C 821.52 918.22 820.29 919.18 819.68 919.67 C 822.70 919.46 825.90 918.92 828.69 920.50 C 832.38 922.49 836.81 921.49 840.60 923.21 C 844.29 924.76 848.79 923.34 852.10 925.95 C 870.36 927.06 888.70 926.22 906.99 926.46 C 917.04 926.21 927.16 927.11 937.16 925.80 C 936.50 925.32 935.19 924.34 934.53 923.85 C 939.64 924.34 945.03 924.93 949.92 922.95 C 952.98 921.65 956.39 922.10 959.64 921.95 C 961.07 917.70 967.65 921.22 969.76 917.41 C 970.37 917.39 971.57 917.34 972.17 917.32 C 978.80 915.00 985.12 911.82 991.81 909.74 C 993.82 907.88 996.37 906.79 998.99 906.07 C 1000.68 905.48 1003.00 905.42 1003.59 903.35 C 1006.06 903.03 1007.87 901.17 1010.04 900.11 C 1011.81 899.05 1014.23 898.48 1014.83 896.21 C 1015.26 896.31 1016.10 896.51 1016.53 896.61 C 1018.35 895.07 1020.43 893.75 1021.77 891.72 C 1023.55 891.11 1024.64 889.38 1026.51 888.92 C 1031.21 885.18 1035.38 880.82 1039.87 876.85 C 1047.10 871.00 1052.88 863.61 1058.09 855.96 C 1060.29 852.83 1061.84 849.25 1064.59 846.53 C 1064.49 846.10 1064.30 845.25 1064.21 844.83 C 1064.58 844.59 1065.32 844.12 1065.68 843.89 C 1068.77 838.46 1072.55 833.15 1073.83 826.94 C 1074.20 826.54 1074.92 825.73 1075.29 825.33 C 1076.36 820.77 1078.15 816.44 1079.72 812.05 C 1080.93 808.57 1080.17 804.32 1082.90 801.49 C 1083.23 798.06 1082.46 794.31 1084.30 791.21 C 1083.83 787.65 1086.07 783.49 1083.95 780.37 C 1085.54 779.42 1084.74 777.46 1084.89 776.02 C 1084.60 767.01 1084.80 757.98 1084.20 748.98 C 1082.72 743.35 1082.91 737.47 1081.52 731.83 C 1081.33 733.74 1081.14 735.65 1080.99 737.57 L 1079.89 737.44 C 1079.77 733.19 1081.06 728.66 1079.05 724.68 C 1077.28 720.18 1077.22 714.74 1073.76 711.09 C 1072.58 705.86 1070.21 701.01 1067.26 696.58 C 1063.70 688.56 1057.57 682.14 1052.57 675.04 C 1052.01 674.92 1050.89 674.67 1050.33 674.55 C 1050.34 674.16 1050.36 673.38 1050.37 672.99 C 1046.13 669.79 1043.03 665.33 1038.73 662.20 C 1020.74 645.36 997.95 635.12 975.72 625.25 C 972.01 623.94 968.82 621.35 964.85 620.80 C 964.52 620.49 963.84 619.87 963.51 619.56 C 959.79 618.23 956.22 616.42 952.29 615.81 C 952.40 615.45 952.62 614.74 952.73 614.39 C 951.55 614.30 950.03 615.09 949.30 613.80 C 947.17 613.66 945.57 612.09 943.71 611.25 C 941.10 609.80 938.00 609.59 935.49 607.94 C 930.35 606.26 925.53 603.74 920.70 601.35 C 918.60 600.33 915.98 600.28 914.37 598.42 C 912.43 597.88 910.50 597.32 908.59 596.75 C 908.49 596.44 908.29 595.83 908.19 595.52 C 906.18 595.08 904.14 594.69 902.34 593.68 C 897.72 591.06 892.51 589.70 887.93 587.01 C 886.76 586.14 885.26 586.06 883.91 585.78 C 879.72 582.78 874.56 581.58 870.06 579.15 C 866.55 577.81 863.71 575.15 860.06 574.15 C 855.96 569.97 849.89 568.46 845.74 564.26 C 841.97 560.43 836.24 558.02 834.25 552.81 C 833.92 552.71 833.25 552.50 832.92 552.40 C 831.21 549.02 828.16 546.25 827.61 542.38 C 827.27 542.47 826.60 542.65 826.26 542.74 C 825.77 540.01 824.49 537.54 823.59 534.96 C 822.76 531.54 822.84 527.98 822.27 524.52 C 821.85 521.24 820.56 517.89 821.59 514.60 C 822.89 510.16 823.02 505.52 823.52 500.95 C 825.33 499.61 824.95 497.01 825.87 495.14 C 827.70 491.27 829.80 487.51 832.07 483.88 C 835.37 478.51 841.38 475.64 844.97 470.51 C 845.62 470.49 846.92 470.47 847.57 470.46 C 847.50 470.03 847.36 469.18 847.29 468.75 C 849.80 467.38 852.36 466.02 855.19 465.46 C 855.30 465.16 855.51 464.55 855.62 464.24 C 860.78 462.57 865.78 460.34 871.01 458.89 C 874.51 458.61 877.73 457.18 881.13 456.42 C 887.19 455.76 893.33 456.51 899.38 455.60 C 906.93 454.53 914.45 456.40 922.01 456.11 C 931.24 455.99 940.28 458.02 949.10 460.53 C 951.90 460.79 954.39 461.98 956.83 463.30 C 965.77 465.17 973.47 470.16 982.14 472.90 C 982.35 473.37 982.78 474.30 983.00 474.76 C 986.78 476.12 990.46 477.84 993.73 480.21 C 999.06 484.23 1004.92 487.50 1010.09 491.75 C 1012.75 493.96 1016.48 495.24 1018.00 498.58 C 1020.44 499.03 1022.49 497.94 1024.27 496.34 C 1025.53 493.41 1028.15 491.45 1030.16 489.07 C 1032.03 486.99 1033.31 484.33 1035.76 482.82 C 1036.16 481.43 1036.60 480.00 1038.19 479.55 C 1038.28 478.94 1038.47 477.72 1038.57 477.11 C 1039.15 477.18 1039.74 477.27 1040.35 477.37 C 1040.64 474.83 1042.97 473.42 1044.44 471.55 C 1048.16 467.56 1050.52 462.34 1054.80 458.90 C 1056.38 454.24 1060.79 451.55 1063.27 447.45 C 1064.96 445.54 1065.63 442.50 1068.28 441.66 C 1067.71 437.80 1063.54 436.38 1061.23 433.73 C 1058.18 430.33 1054.36 427.81 1050.91 424.88 C 1047.71 422.65 1044.43 420.49 1041.56 417.83 C 1041.07 417.74 1040.07 417.56 1039.57 417.47 C 1039.39 417.00 1039.02 416.06 1038.84 415.59 C 1033.30 412.80 1028.34 409.00 1023.16 405.63 C 1022.91 405.73 1022.42 405.93 1022.17 406.03 C 1020.58 404.39 1018.57 403.32 1016.44 402.62 C 1016.48 402.30 1016.58 401.65 1016.62 401.32 C 1015.91 401.38 1014.49 401.48 1013.78 401.54 C 1013.59 400.93 1013.23 399.72 1013.04 399.11 C 1011.62 398.91 1010.22 398.71 1008.83 398.49 C 1007.66 396.00 1004.30 397.06 1002.61 395.14 C 995.30 390.74 986.89 388.82 979.13 385.42 C 975.26 384.87 971.93 382.42 967.94 382.53 C 965.11 382.45 962.96 380.09 960.10 380.14 C 957.83 380.00 955.66 379.39 953.56 378.60 C 951.21 377.70 948.20 378.29 946.49 376.11 C 940.34 375.97 934.20 375.32 928.15 374.18 C 911.14 372.69 894.05 373.83 877.02 374.03 M 588.13 378.18 C 588.05 380.11 588.00 382.04 588.00 383.98 C 587.99 493.67 588.02 603.35 587.99 713.03 C 587.75 729.36 588.03 745.73 586.76 762.02 C 587.49 769.57 585.16 776.86 583.51 784.13 C 582.91 788.42 581.58 792.56 580.68 796.79 C 577.90 801.08 577.60 806.63 574.49 810.61 C 573.96 811.93 573.71 813.46 572.57 814.44 C 569.81 817.19 568.31 820.87 565.80 823.82 C 563.71 826.64 560.45 828.50 559.04 831.83 C 558.71 831.69 558.04 831.40 557.71 831.26 C 556.88 833.48 554.77 834.73 553.04 836.18 C 548.97 839.51 544.38 842.12 540.00 845.00 C 538.88 845.76 537.53 845.98 536.27 846.38 C 536.34 846.74 536.49 847.46 536.56 847.82 C 534.04 847.54 531.81 848.64 529.70 849.84 C 527.92 850.91 525.36 850.48 524.18 852.46 C 521.79 852.66 519.34 852.61 517.05 853.37 C 511.34 855.69 505.02 854.80 499.01 855.01 C 490.06 855.30 480.92 854.29 472.56 851.02 C 470.81 850.50 468.97 850.09 467.58 848.85 C 460.69 845.91 454.35 841.91 447.88 838.17 C 445.50 835.26 442.46 832.94 439.27 831.00 C 439.37 830.68 439.58 830.06 439.68 829.74 C 436.79 827.73 434.23 825.02 432.36 822.04 C 431.96 821.90 431.16 821.63 430.75 821.49 C 428.76 818.34 428.08 813.29 423.96 812.28 C 417.54 812.28 411.98 816.05 406.47 818.89 C 404.04 819.50 401.54 819.78 399.05 820.01 C 397.34 819.75 396.65 821.78 395.07 821.91 C 390.68 822.70 386.53 824.55 382.06 824.89 C 378.95 825.01 376.17 826.55 373.12 826.93 C 367.53 827.55 362.13 829.22 356.59 830.10 C 357.44 834.02 359.21 837.70 360.55 841.48 C 363.64 846.33 365.98 851.60 368.47 856.77 C 368.99 857.03 370.02 857.55 370.53 857.80 C 370.52 858.49 370.50 859.85 370.49 860.53 C 370.93 860.49 371.80 860.41 372.23 860.36 C 372.55 865.17 377.27 867.70 379.60 871.51 C 387.66 880.10 395.78 888.74 405.02 896.10 C 410.43 900.50 416.78 903.54 422.54 907.41 C 425.57 908.61 428.50 910.16 431.00 912.28 C 431.98 912.39 432.96 912.51 433.94 912.65 C 434.21 913.02 434.73 913.75 434.99 914.12 C 447.04 919.81 459.65 924.63 472.92 926.36 C 480.94 926.71 488.97 927.12 497.00 927.00 C 512.58 926.89 528.18 927.38 543.73 926.33 C 547.94 926.07 551.80 924.12 556.02 923.91 C 560.59 922.63 565.07 920.97 569.61 919.56 C 574.46 918.35 578.72 915.46 583.59 914.36 L 583.32 913.40 C 588.22 912.70 591.98 909.35 596.56 907.87 C 601.56 903.99 607.32 901.23 612.23 897.22 C 618.63 893.07 623.70 887.33 629.14 882.08 C 637.97 873.63 644.68 863.32 651.20 853.07 C 652.11 851.86 652.38 850.37 652.75 848.95 C 655.47 847.02 656.06 843.44 658.01 840.86 C 661.92 834.83 663.08 827.59 666.15 821.21 C 666.25 820.05 666.49 818.92 666.87 817.85 C 669.70 813.01 670.29 807.26 671.87 801.97 C 673.53 798.27 673.26 793.99 675.19 790.40 C 675.91 785.50 675.85 780.52 676.64 775.63 C 678.61 767.92 678.12 759.90 678.19 752.01 C 678.24 708.00 678.26 663.99 678.37 619.97 C 678.45 610.64 678.15 601.30 678.98 592.00 C 679.00 521.30 679.04 450.59 678.96 379.89 C 679.22 377.59 676.52 377.75 675.01 377.83 C 646.05 378.12 617.08 377.46 588.13 378.18 M 492.52 695.70 C 464.31 697.72 438.92 718.56 430.35 745.33 C 429.59 749.98 427.11 754.26 427.29 759.06 C 427.22 769.48 426.09 780.25 429.57 790.29 C 434.13 806.25 444.58 820.37 458.14 829.85 C 468.94 837.17 481.74 842.50 495.00 841.88 C 503.35 841.71 511.96 842.64 520.02 839.89 C 544.48 832.92 564.16 812.10 570.40 787.53 C 572.19 779.12 572.00 770.48 571.78 761.94 C 571.41 755.99 570.92 749.93 568.57 744.38 C 562.08 726.39 548.65 710.92 531.39 702.55 C 519.47 696.37 505.79 694.48 492.52 695.70 Z" />
<path fill="#111111" opacity="1.00" d=" M 237.65 361.57 C 250.41 361.12 263.19 361.35 275.95 361.46 C 293.04 361.56 310.24 362.46 326.96 366.20 C 334.53 368.20 342.22 369.85 349.63 372.44 C 362.59 377.27 374.92 383.78 386.25 391.70 C 392.87 397.82 400.60 402.78 406.25 409.90 C 412.04 416.56 417.53 423.52 421.63 431.37 C 427.01 439.31 430.20 448.38 433.96 457.14 C 437.10 465.01 439.17 473.25 441.57 481.36 C 443.96 491.54 444.78 502.01 446.64 512.30 C 447.88 522.17 447.81 532.15 448.98 542.02 C 448.95 550.32 449.44 558.66 448.36 566.92 C 447.51 574.90 448.65 582.99 447.30 590.94 C 444.07 614.94 439.49 639.15 429.31 661.29 C 423.77 673.71 415.55 684.61 407.74 695.65 C 400.79 703.39 393.43 710.90 384.86 716.87 C 377.90 721.85 370.36 725.96 362.77 729.88 C 352.71 734.99 341.74 737.82 330.98 741.05 C 324.46 743.07 317.52 742.80 310.96 744.69 C 301.73 746.18 292.29 745.23 283.00 746.28 C 271.37 747.82 259.62 747.17 247.94 747.51 C 244.58 747.60 241.22 747.43 237.88 747.13 C 237.48 743.75 237.37 740.35 237.47 736.96 C 237.71 611.83 237.34 486.70 237.65 361.57 Z" />
</g>
<g id="#3d3f42ff">
<path fill="#3d3f42" opacity="1.00" d=" M 144.04 285.00 C 192.04 284.97 240.04 285.06 288.04 285.00 C 291.05 284.98 294.04 285.29 297.02 285.68 C 303.28 286.52 309.61 285.53 315.88 286.37 C 324.79 287.49 333.72 288.50 342.65 289.50 C 350.34 291.32 358.22 292.09 365.91 293.93 C 382.42 297.66 398.73 302.68 414.00 310.04 C 422.58 313.95 431.36 317.57 439.24 322.82 C 448.73 329.20 458.28 335.57 467.01 342.99 C 489.24 362.81 507.16 387.43 519.35 414.60 C 525.12 427.21 528.77 440.64 533.27 453.73 C 537.50 468.89 539.58 484.54 542.01 500.05 C 542.60 510.41 545.15 520.58 545.00 530.99 C 545.37 546.99 544.83 562.99 544.96 578.99 C 543.71 593.16 540.97 607.17 539.46 621.32 C 534.75 642.71 529.93 664.28 521.42 684.54 C 505.64 683.19 489.14 681.11 473.91 686.70 C 456.35 692.09 440.91 703.48 430.30 718.43 C 422.07 730.52 415.80 744.37 414.65 759.11 C 412.88 771.35 415.34 783.71 417.90 795.64 C 411.37 800.16 403.62 802.42 396.25 805.17 C 375.70 811.98 354.58 817.27 333.09 819.88 C 325.21 821.60 317.09 820.84 309.12 821.79 C 298.09 822.29 287.04 821.74 276.01 822.05 C 271.34 822.31 266.70 823.05 262.01 823.00 C 222.68 822.96 183.35 823.00 144.02 822.97 C 143.96 643.65 144.00 464.32 144.04 285.00 M 237.65 361.57 C 237.34 486.70 237.71 611.83 237.47 736.96 C 237.37 740.35 237.48 743.75 237.88 747.13 C 241.22 747.43 244.58 747.60 247.94 747.51 C 259.62 747.17 271.37 747.82 283.00 746.28 C 292.29 745.23 301.73 746.18 310.96 744.69 C 317.52 742.80 324.46 743.07 330.98 741.05 C 341.74 737.82 352.71 734.99 362.77 729.88 C 370.36 725.96 377.90 721.85 384.86 716.87 C 393.43 710.90 400.79 703.39 407.74 695.65 C 415.55 684.61 423.77 673.71 429.31 661.29 C 439.49 639.15 444.07 614.94 447.30 590.94 C 448.65 582.99 447.51 574.90 448.36 566.92 C 449.44 558.66 448.95 550.32 448.98 542.02 C 447.81 532.15 447.88 522.17 446.64 512.30 C 444.78 502.01 443.96 491.54 441.57 481.36 C 439.17 473.25 437.10 465.01 433.96 457.14 C 430.20 448.38 427.01 439.31 421.63 431.37 C 417.53 423.52 412.04 416.56 406.25 409.90 C 400.60 402.78 392.87 397.82 386.25 391.70 C 374.92 383.78 362.59 377.27 349.63 372.44 C 342.22 369.85 334.53 368.20 326.96 366.20 C 310.24 362.46 293.04 361.56 275.95 361.46 C 263.19 361.35 250.41 361.12 237.65 361.57 Z" />
</g>
<g id="#33b5e5ff">
<path fill="#33b5e5" opacity="1.00" d=" M 877.02 374.03 C 894.05 373.83 911.14 372.69 928.15 374.18 C 934.20 375.32 940.34 375.97 946.49 376.11 C 948.20 378.29 951.21 377.70 953.56 378.60 C 955.66 379.39 957.83 380.00 960.10 380.14 C 962.96 380.09 965.11 382.45 967.94 382.53 C 971.93 382.42 975.26 384.87 979.13 385.42 C 986.89 388.82 995.30 390.74 1002.61 395.14 C 1004.30 397.06 1007.66 396.00 1008.83 398.49 C 1010.22 398.71 1011.62 398.91 1013.04 399.11 C 1013.23 399.72 1013.59 400.93 1013.78 401.54 C 1014.49 401.48 1015.91 401.38 1016.62 401.32 C 1016.58 401.65 1016.48 402.30 1016.44 402.62 C 1018.57 403.32 1020.58 404.39 1022.17 406.03 C 1022.42 405.93 1022.91 405.73 1023.16 405.63 C 1028.34 409.00 1033.30 412.80 1038.84 415.59 C 1039.02 416.06 1039.39 417.00 1039.57 417.47 C 1040.07 417.56 1041.07 417.74 1041.56 417.83 C 1044.43 420.49 1047.71 422.65 1050.91 424.88 C 1054.36 427.81 1058.18 430.33 1061.23 433.73 C 1063.54 436.38 1067.71 437.80 1068.28 441.66 C 1065.63 442.50 1064.96 445.54 1063.27 447.45 C 1060.79 451.55 1056.38 454.24 1054.80 458.90 C 1050.52 462.34 1048.16 467.56 1044.44 471.55 C 1042.97 473.42 1040.64 474.83 1040.35 477.37 C 1039.74 477.27 1039.15 477.18 1038.57 477.11 C 1038.47 477.72 1038.28 478.94 1038.19 479.55 C 1036.60 480.00 1036.16 481.43 1035.76 482.82 C 1033.31 484.33 1032.03 486.99 1030.16 489.07 C 1028.15 491.45 1025.53 493.41 1024.27 496.34 C 1022.49 497.94 1020.44 499.03 1018.00 498.58 C 1016.48 495.24 1012.75 493.96 1010.09 491.75 C 1004.92 487.50 999.06 484.23 993.73 480.21 C 990.46 477.84 986.78 476.12 983.00 474.76 C 982.78 474.30 982.35 473.37 982.14 472.90 C 973.47 470.16 965.77 465.17 956.83 463.30 C 954.39 461.98 951.90 460.79 949.10 460.53 C 940.28 458.02 931.24 455.99 922.01 456.11 C 914.45 456.40 906.93 454.53 899.38 455.60 C 893.33 456.51 887.19 455.76 881.13 456.42 C 877.73 457.18 874.51 458.61 871.01 458.89 C 865.78 460.34 860.78 462.57 855.62 464.24 C 855.51 464.55 855.30 465.16 855.19 465.46 C 852.36 466.02 849.80 467.38 847.29 468.75 C 847.36 469.18 847.50 470.03 847.57 470.46 C 846.92 470.47 845.62 470.49 844.97 470.51 C 841.38 475.64 835.37 478.51 832.07 483.88 C 829.80 487.51 827.70 491.27 825.87 495.14 C 824.95 497.01 825.33 499.61 823.52 500.95 C 823.02 505.52 822.89 510.16 821.59 514.60 C 820.56 517.89 821.85 521.24 822.27 524.52 C 822.84 527.98 822.76 531.54 823.59 534.96 C 824.49 537.54 825.77 540.01 826.26 542.74 C 826.60 542.65 827.27 542.47 827.61 542.38 C 828.16 546.25 831.21 549.02 832.92 552.40 C 833.25 552.50 833.92 552.71 834.25 552.81 C 836.24 558.02 841.97 560.43 845.74 564.26 C 849.89 568.46 855.96 569.97 860.06 574.15 C 863.71 575.15 866.55 577.81 870.06 579.15 C 874.56 581.58 879.72 582.78 883.91 585.78 C 885.26 586.06 886.76 586.14 887.93 587.01 C 892.51 589.70 897.72 591.06 902.34 593.68 C 904.14 594.69 906.18 595.08 908.19 595.52 C 908.29 595.83 908.49 596.44 908.59 596.75 C 910.50 597.32 912.43 597.88 914.37 598.42 C 915.98 600.28 918.60 600.33 920.70 601.35 C 925.53 603.74 930.35 606.26 935.49 607.94 C 938.00 609.59 941.10 609.80 943.71 611.25 C 945.57 612.09 947.17 613.66 949.30 613.80 C 950.03 615.09 951.55 614.30 952.73 614.39 C 952.62 614.74 952.40 615.45 952.29 615.81 C 956.22 616.42 959.79 618.23 963.51 619.56 C 963.84 619.87 964.52 620.49 964.85 620.80 C 968.82 621.35 972.01 623.94 975.72 625.25 C 997.95 635.12 1020.74 645.36 1038.73 662.20 C 1043.03 665.33 1046.13 669.79 1050.37 672.99 C 1050.36 673.38 1050.34 674.16 1050.33 674.55 C 1050.89 674.67 1052.01 674.92 1052.57 675.04 C 1057.57 682.14 1063.70 688.56 1067.26 696.58 C 1070.21 701.01 1072.58 705.86 1073.76 711.09 C 1077.22 714.74 1077.28 720.18 1079.05 724.68 C 1081.06 728.66 1079.77 733.19 1079.89 737.44 L 1080.99 737.57 C 1081.14 735.65 1081.33 733.74 1081.52 731.83 C 1082.91 737.47 1082.72 743.35 1084.20 748.98 C 1084.80 757.98 1084.60 767.01 1084.89 776.02 C 1084.74 777.46 1085.54 779.42 1083.95 780.37 C 1086.07 783.49 1083.83 787.65 1084.30 791.21 C 1082.46 794.31 1083.23 798.06 1082.90 801.49 C 1080.17 804.32 1080.93 808.57 1079.72 812.05 C 1078.15 816.44 1076.36 820.77 1075.29 825.33 C 1074.92 825.73 1074.20 826.54 1073.83 826.94 C 1072.55 833.15 1068.77 838.46 1065.68 843.89 C 1065.32 844.12 1064.58 844.59 1064.21 844.83 C 1064.30 845.25 1064.49 846.10 1064.59 846.53 C 1061.84 849.25 1060.29 852.83 1058.09 855.96 C 1052.88 863.61 1047.10 871.00 1039.87 876.85 C 1035.38 880.82 1031.21 885.18 1026.51 888.92 C 1024.64 889.38 1023.55 891.11 1021.77 891.72 C 1020.43 893.75 1018.35 895.07 1016.53 896.61 C 1016.10 896.51 1015.26 896.31 1014.83 896.21 C 1014.23 898.48 1011.81 899.05 1010.04 900.11 C 1007.87 901.17 1006.06 903.03 1003.59 903.35 C 1003.00 905.42 1000.68 905.48 998.99 906.07 C 996.37 906.79 993.82 907.88 991.81 909.74 C 985.12 911.82 978.80 915.00 972.17 917.32 C 971.57 917.34 970.37 917.39 969.76 917.41 C 967.65 921.22 961.07 917.70 959.64 921.95 C 956.39 922.10 952.98 921.65 949.92 922.95 C 945.03 924.93 939.64 924.34 934.53 923.85 C 935.19 924.34 936.50 925.32 937.16 925.80 C 927.16 927.11 917.04 926.21 906.99 926.46 C 888.70 926.22 870.36 927.06 852.10 925.95 C 848.79 923.34 844.29 924.76 840.60 923.21 C 836.81 921.49 832.38 922.49 828.69 920.50 C 825.90 918.92 822.70 919.46 819.68 919.67 C 820.29 919.18 821.52 918.22 822.13 917.73 C 814.35 917.31 807.03 914.31 800.11 910.96 C 794.68 909.63 789.57 907.36 784.47 905.14 C 781.64 902.82 778.01 901.75 774.62 900.52 C 772.49 898.17 769.12 898.01 766.46 896.55 C 763.12 895.03 760.77 891.90 757.19 890.86 C 756.97 890.48 756.52 889.74 756.29 889.36 C 755.60 889.38 754.21 889.41 753.52 889.43 C 753.53 888.96 753.57 888.02 753.58 887.56 C 750.36 886.90 746.93 885.36 745.03 882.59 C 744.06 882.34 743.11 882.11 742.17 881.89 C 741.55 880.83 740.76 879.92 739.62 879.46 C 737.14 878.38 735.73 875.68 733.00 875.11 C 730.88 872.39 726.89 871.90 725.30 868.73 C 722.04 866.73 719.45 863.85 716.32 861.70 C 711.90 858.63 708.64 854.20 704.07 851.35 C 711.44 843.57 717.85 834.97 724.87 826.91 C 726.71 825.04 727.83 822.42 730.28 821.25 C 732.12 817.99 734.54 814.83 737.41 812.44 C 741.50 806.28 746.68 800.94 751.14 795.06 C 753.05 792.39 755.87 790.34 757.00 787.17 C 759.20 788.53 761.26 790.10 763.38 791.59 C 766.71 795.30 771.16 797.77 774.59 801.39 C 776.71 803.24 778.95 805.01 781.43 806.36 C 785.21 808.76 788.56 812.29 793.02 813.26 C 793.18 813.80 793.50 814.89 793.66 815.43 C 794.23 815.49 795.37 815.59 795.94 815.64 C 800.02 819.73 806.06 821.17 810.56 824.75 C 811.02 824.93 811.94 825.29 812.41 825.46 C 813.52 826.78 815.21 826.92 816.81 827.23 C 817.63 829.89 821.01 828.55 822.75 830.20 C 824.43 831.51 826.48 832.05 828.57 832.35 C 828.88 832.73 829.50 833.51 829.81 833.89 C 836.12 834.48 841.42 839.10 847.93 839.10 C 850.08 841.43 853.32 840.89 856.19 841.06 C 856.35 841.62 856.67 842.73 856.83 843.29 C 859.66 843.40 862.49 843.51 865.32 843.75 C 869.77 846.19 875.02 845.52 879.90 845.93 C 891.93 846.09 903.97 845.96 916.00 845.99 C 920.66 845.80 925.47 846.19 929.94 844.62 C 932.14 843.53 934.75 843.85 936.93 842.75 C 939.98 840.74 943.85 840.88 947.05 839.14 C 955.24 836.31 962.47 831.41 969.43 826.38 C 976.60 819.32 983.23 811.08 986.54 801.49 C 987.98 800.08 987.90 797.98 988.40 796.17 C 991.06 786.66 989.69 776.68 989.98 766.95 C 988.78 759.00 986.02 751.27 981.47 744.57 C 979.38 740.14 975.74 736.80 973.13 732.72 C 972.05 732.48 970.98 732.25 969.92 732.02 C 969.78 731.48 969.50 730.40 969.37 729.86 C 965.79 727.33 962.14 724.93 958.70 722.22 C 953.74 720.71 949.67 717.44 945.22 714.95 C 944.20 713.82 942.86 713.28 941.40 713.12 C 936.64 710.65 931.91 707.87 926.65 706.55 C 924.38 704.38 921.28 703.60 918.47 702.44 C 914.23 700.60 909.95 698.88 905.66 697.16 C 900.01 693.86 893.61 692.29 887.95 689.02 C 882.05 686.77 876.35 684.03 870.64 681.38 C 868.96 680.98 867.33 680.46 866.01 679.31 C 862.81 678.25 860.08 676.06 856.67 675.58 C 853.91 672.72 849.37 673.21 846.38 670.60 C 841.51 668.50 836.83 665.84 831.66 664.53 C 829.09 662.21 825.40 662.14 822.43 660.55 C 813.44 655.92 804.85 650.65 796.14 645.54 C 795.92 645.06 795.48 644.08 795.26 643.59 C 794.73 643.53 793.65 643.42 793.12 643.36 C 792.11 641.60 790.29 640.92 788.41 640.58 C 788.50 640.27 788.67 639.63 788.76 639.32 C 786.02 638.64 783.53 636.87 782.31 634.30 C 781.97 634.30 781.28 634.28 780.94 634.27 C 780.77 632.51 779.25 632.20 777.82 631.93 C 777.68 631.40 777.41 630.33 777.28 629.79 C 776.63 629.67 775.34 629.43 774.69 629.31 C 774.73 628.90 774.80 628.07 774.84 627.66 C 768.33 624.08 764.00 617.63 758.75 612.51 C 758.69 611.97 758.57 610.88 758.51 610.34 C 758.03 610.34 757.08 610.36 756.60 610.37 C 756.56 609.77 756.48 608.57 756.44 607.97 C 753.66 606.31 752.09 603.36 751.03 600.41 C 750.64 600.46 749.85 600.57 749.45 600.63 C 749.45 599.93 749.44 598.53 749.44 597.83 C 748.83 597.66 747.61 597.33 747.00 597.16 C 746.94 596.23 746.82 594.37 746.76 593.44 C 746.42 593.48 745.74 593.56 745.40 593.61 C 745.03 591.42 744.46 589.24 742.94 587.58 C 742.52 586.13 742.13 584.68 741.76 583.24 C 741.42 583.34 740.73 583.53 740.39 583.63 C 738.38 574.86 732.32 567.20 732.38 557.90 C 730.84 556.32 731.19 553.97 730.83 551.98 C 730.48 547.58 728.59 543.47 728.36 539.06 C 727.33 525.32 727.41 511.32 730.48 497.83 C 731.07 490.54 734.01 483.79 735.81 476.79 C 737.28 473.92 737.75 470.58 739.73 467.98 C 740.09 466.49 740.49 464.99 741.66 463.93 C 743.59 458.21 747.54 453.51 750.25 448.16 C 754.78 441.84 759.27 435.41 764.79 429.90 C 767.67 426.73 770.17 423.19 773.47 420.43 C 780.63 414.55 787.99 408.91 795.61 403.65 C 797.20 402.50 799.02 401.75 800.90 401.23 C 801.96 400.37 803.02 399.53 804.09 398.67 C 804.57 398.61 805.52 398.48 806.00 398.42 C 808.20 394.88 813.17 395.07 816.13 392.43 C 818.37 391.97 820.53 391.21 822.46 389.93 C 824.22 389.52 825.93 388.89 827.49 387.93 C 829.31 387.42 831.20 386.96 832.68 385.68 C 835.46 384.99 838.24 384.16 840.79 382.81 C 842.74 382.64 844.78 382.53 846.52 381.50 C 849.45 379.80 853.07 380.33 855.95 378.44 C 860.24 377.57 864.83 377.90 868.84 375.81 C 870.52 375.72 872.23 375.75 873.93 375.52 C 874.92 374.96 875.73 373.80 877.02 374.03 Z" />
<path fill="#33b5e5" opacity="1.00" d=" M 588.13 378.18 C 617.08 377.46 646.05 378.12 675.01 377.83 C 676.52 377.75 679.22 377.59 678.96 379.89 C 679.04 450.59 679.00 521.30 678.98 592.00 C 678.15 601.30 678.45 610.64 678.37 619.97 C 678.26 663.99 678.24 708.00 678.19 752.01 C 678.12 759.90 678.61 767.92 676.64 775.63 C 675.85 780.52 675.91 785.50 675.19 790.40 C 673.26 793.99 673.53 798.27 671.87 801.97 C 670.29 807.26 669.70 813.01 666.87 817.85 C 666.49 818.92 666.25 820.05 666.15 821.21 C 663.08 827.59 661.92 834.83 658.01 840.86 C 656.06 843.44 655.47 847.02 652.75 848.95 C 652.38 850.37 652.11 851.86 651.20 853.07 C 644.68 863.32 637.97 873.63 629.14 882.08 C 623.70 887.33 618.63 893.07 612.23 897.22 C 607.32 901.23 601.56 903.99 596.56 907.87 C 591.98 909.35 588.22 912.70 583.32 913.40 L 583.59 914.36 C 578.72 915.46 574.46 918.35 569.61 919.56 C 565.07 920.97 560.59 922.63 556.02 923.91 C 551.80 924.12 547.94 926.07 543.73 926.33 C 528.18 927.38 512.58 926.89 497.00 927.00 C 488.97 927.12 480.94 926.71 472.92 926.36 C 459.65 924.63 447.04 919.81 434.99 914.12 C 434.73 913.75 434.21 913.02 433.94 912.65 C 432.96 912.51 431.98 912.39 431.00 912.28 C 428.50 910.16 425.57 908.61 422.54 907.41 C 416.78 903.54 410.43 900.50 405.02 896.10 C 395.78 888.74 387.66 880.10 379.60 871.51 C 377.27 867.70 372.55 865.17 372.23 860.36 C 371.80 860.41 370.93 860.49 370.49 860.53 C 370.50 859.85 370.52 858.49 370.53 857.80 C 370.02 857.55 368.99 857.03 368.47 856.77 C 365.98 851.60 363.64 846.33 360.55 841.48 C 359.21 837.70 357.44 834.02 356.59 830.10 C 362.13 829.22 367.53 827.55 373.12 826.93 C 376.17 826.55 378.95 825.01 382.06 824.89 C 386.53 824.55 390.68 822.70 395.07 821.91 C 396.65 821.78 397.34 819.75 399.05 820.01 C 401.54 819.78 404.04 819.50 406.47 818.89 C 411.98 816.05 417.54 812.28 423.96 812.28 C 428.08 813.29 428.76 818.34 430.75 821.49 C 431.16 821.63 431.96 821.90 432.36 822.04 C 434.23 825.02 436.79 827.73 439.68 829.74 C 439.58 830.06 439.37 830.68 439.27 831.00 C 442.46 832.94 445.50 835.26 447.88 838.17 C 454.35 841.91 460.69 845.91 467.58 848.85 C 468.97 850.09 470.81 850.50 472.56 851.02 C 480.92 854.29 490.06 855.30 499.01 855.01 C 505.02 854.80 511.34 855.69 517.05 853.37 C 519.34 852.61 521.79 852.66 524.18 852.46 C 525.36 850.48 527.92 850.91 529.70 849.84 C 531.81 848.64 534.04 847.54 536.56 847.82 C 536.49 847.46 536.34 846.74 536.27 846.38 C 537.53 845.98 538.88 845.76 540.00 845.00 C 544.38 842.12 548.97 839.51 553.04 836.18 C 554.77 834.73 556.88 833.48 557.71 831.26 C 558.04 831.40 558.71 831.69 559.04 831.83 C 560.45 828.50 563.71 826.64 565.80 823.82 C 568.31 820.87 569.81 817.19 572.57 814.44 C 573.71 813.46 573.96 811.93 574.49 810.61 C 577.60 806.63 577.90 801.08 580.68 796.79 C 581.58 792.56 582.91 788.42 583.51 784.13 C 585.16 776.86 587.49 769.57 586.76 762.02 C 588.03 745.73 587.75 729.36 587.99 713.03 C 588.02 603.35 587.99 493.67 588.00 383.98 C 588.00 382.04 588.05 380.11 588.13 378.18 Z" />
</g>
<g id="#499a6cff">
<path fill="#499a6c" opacity="1.00" d=" M 492.52 695.70 C 505.79 694.48 519.47 696.37 531.39 702.55 C 548.65 710.92 562.08 726.39 568.57 744.38 C 570.92 749.93 571.41 755.99 571.78 761.94 C 572.00 770.48 572.19 779.12 570.40 787.53 C 564.16 812.10 544.48 832.92 520.02 839.89 C 511.96 842.64 503.35 841.71 495.00 841.88 C 481.74 842.50 468.94 837.17 458.14 829.85 C 444.58 820.37 434.13 806.25 429.57 790.29 C 426.09 780.25 427.22 769.48 427.29 759.06 C 427.11 754.26 429.59 749.98 430.35 745.33 C 438.92 718.56 464.31 697.72 492.52 695.70 Z" />
</g>
</svg>
