<?xml version="1.0" encoding="UTF-8" ?>
<!DOCTYPE svg PUBLIC "-//W3C//DTD SVG 1.1//EN" "http://www.w3.org/Graphics/SVG/1.1/DTD/svg11.dtd">
<svg width="200pt" height="95pt" viewBox="0 0 200 95" version="1.1" xmlns="http://www.w3.org/2000/svg">
<g id="#22b573ff">
<path fill="#22b573" opacity="1.00" d=" M 0.00 0.00 L 0.61 0.00 C 1.66 2.01 3.36 3.55 4.77 5.28 C 30.12 34.88 55.51 64.43 80.83 94.05 L 80.83 94.06 L 80.53 95.00 L 0.00 95.00 L 0.00 0.00 Z" />
</g>
<g id="#ffffffff">
</g>
<g id="#29abe2ff">
<path fill="#29abe2" opacity="1.00" d=" M 81.14 0.00 L 81.62 0.00 C 83.10 2.28 85.00 4.23 86.75 6.29 C 104.68 27.23 122.63 48.15 140.57 69.09 C 142.02 71.69 144.18 73.74 146.32 75.77 C 151.52 81.89 156.75 87.97 162.09 93.97 C 135.01 93.92 107.91 93.72 80.83 94.06 L 80.83 94.05 C 81.32 62.72 80.69 31.34 81.14 0.00 Z" />
</g>
<g id="#0f9dceff">
<path fill="#0f9dce" opacity="1.00" d=" M 140.57 69.09 C 160.36 46.16 180.06 23.14 200.00 0.34 L 200.00 94.10 C 187.37 94.24 174.70 94.49 162.09 93.97 C 156.75 87.97 151.52 81.89 146.32 75.77 C 144.18 73.74 142.02 71.69 140.57 69.09 Z" />
</g>
<g id="#59bde4ff">
<path fill="#59bde4" opacity="1.00" d=" M 80.83 94.06 C 107.91 93.72 135.01 93.92 162.09 93.97 C 174.70 94.49 187.37 94.24 200.00 94.10 L 200.00 95.00 L 80.53 95.00 L 80.83 94.06 Z" />
</g>
</svg>
