<?xml version="1.0" encoding="UTF-8" ?>
<!DOCTYPE svg PUBLIC "-//W3C//DTD SVG 1.1//EN" "http://www.w3.org/Graphics/SVG/1.1/DTD/svg11.dtd">
<svg width="200pt" height="200pt" viewBox="0 0 200 200" version="1.1" xmlns="http://www.w3.org/2000/svg">
<g id="#505a6eff">
<path fill="#505a6e" opacity="1.00" d=" M 26.52 0.00 L 126.97 0.00 C 141.81 0.86 156.40 5.92 168.36 14.79 C 182.11 24.85 192.37 39.60 196.89 56.04 C 202.00 74.30 200.02 94.47 191.28 111.32 C 183.45 126.70 170.22 139.15 154.54 146.32 C 162.56 154.36 170.62 162.36 178.61 170.42 C 183.20 174.86 184.96 181.90 182.91 187.95 C 181.00 194.43 175.02 199.27 168.33 200.00 L 26.74 200.00 C 13.61 198.99 2.07 188.45 0.00 175.43 L 0.00 24.48 C 2.12 11.57 13.50 1.15 26.52 0.00 M 23.18 13.11 C 15.62 15.73 10.57 24.02 11.87 31.95 C 12.86 39.88 19.94 46.51 27.93 46.89 C 36.35 47.20 44.79 46.82 53.21 47.06 C 54.97 47.04 56.39 48.21 57.58 49.36 C 86.81 78.59 116.04 107.82 145.27 137.04 C 158.34 132.20 169.79 123.09 177.33 111.35 C 185.58 98.69 189.08 83.03 187.04 68.05 C 185.07 52.55 177.11 37.96 165.28 27.78 C 153.95 17.90 139.06 12.17 124.02 12.07 C 94.02 12.05 64.02 12.08 34.01 12.05 C 30.39 12.09 26.63 11.73 23.18 13.11 M 11.67 53.39 C 11.71 90.59 11.68 127.79 11.69 164.99 C 11.70 169.24 11.31 173.74 13.25 177.68 C 16.06 184.12 23.01 188.30 30.01 187.99 C 75.39 187.98 120.77 188.04 166.14 187.96 C 170.76 188.46 173.63 181.99 170.03 178.97 C 130.09 138.97 90.11 99.01 50.12 59.05 C 42.74 59.02 35.37 59.15 27.99 58.99 C 22.12 58.85 16.48 56.69 11.67 53.39 Z" />
<path fill="#505a6e" opacity="1.00" d=" M 26.23 93.31 C 37.44 92.58 48.76 93.23 60.01 92.99 C 62.79 93.10 66.12 92.40 68.32 94.58 C 71.06 96.95 70.80 101.77 67.82 103.84 C 65.90 105.38 63.29 104.93 61.01 105.02 C 49.67 104.88 38.32 105.19 26.99 104.88 C 21.15 104.08 20.57 94.89 26.23 93.31 Z" />
<path fill="#505a6e" opacity="1.00" d=" M 26.24 117.30 C 27.78 116.88 29.40 117.02 30.98 116.98 C 49.35 117.04 67.73 116.96 86.10 117.02 C 89.38 116.80 92.35 119.75 92.24 123.01 C 92.33 126.30 89.32 129.24 86.03 128.99 C 66.36 128.94 46.68 129.15 27.02 128.88 C 21.15 128.12 20.56 118.88 26.24 117.30 Z" />
<path fill="#505a6e" opacity="1.00" d=" M 26.26 141.30 C 27.82 140.87 29.46 141.02 31.06 140.98 C 57.42 141.04 83.78 140.96 110.13 141.02 C 113.38 140.81 116.31 143.73 116.25 146.96 C 116.36 150.23 113.40 153.20 110.11 152.98 C 83.07 153.03 56.02 152.98 28.98 153.01 C 26.61 153.20 24.13 152.14 22.98 150.00 C 21.08 146.88 22.75 142.36 26.26 141.30 Z" />
</g>
</svg>
