<svg width="315pt" height="283pt" viewBox="0 0 315 283" version="1.1" xmlns="http://www.w3.org/2000/svg">
<g id="#68bd45ff">
<path fill="#68bd45" opacity="1.00" d=" M 88.52 1.83 C 93.57 0.44 98.83 0.90 104.00 0.85 C 141.32 0.83 178.63 0.87 215.95 0.83 C 228.69 0.12 241.64 6.84 248.43 17.63 C 267.70 50.98 286.95 84.35 306.21 117.70 C 308.77 122.28 311.92 126.67 313.07 131.88 C 315.20 140.87 314.56 150.87 309.87 158.98 C 289.36 194.46 268.90 229.97 248.39 265.44 C 241.60 276.16 228.72 282.84 216.04 282.17 C 175.68 282.11 135.32 282.20 94.96 282.13 C 82.71 281.33 70.85 273.92 65.16 262.97 C 46.26 230.17 27.31 197.40 8.39 164.61 C 5.95 160.31 3.07 156.12 1.95 151.22 C -0.14 142.46 0.39 132.74 4.73 124.72 C 25.23 89.22 45.73 53.72 66.22 18.21 C 70.97 9.98 79.49 4.39 88.52 1.83 M 152.51 47.74 C 147.57 49.54 143.79 54.57 144.10 59.94 C 144.08 85.31 143.99 110.68 144.11 136.05 C 143.74 142.94 150.18 149.19 157.02 148.84 C 163.80 149.04 169.93 142.86 169.75 136.10 C 169.73 110.39 169.80 84.68 169.71 58.97 C 169.51 50.81 160.10 44.55 152.51 47.74 M 109.45 64.55 C 108.01 64.91 106.67 65.61 105.46 66.45 C 84.80 81.60 71.55 106.32 70.44 131.91 C 69.45 150.97 75.13 170.26 86.19 185.80 C 98.62 203.42 117.76 216.23 138.90 220.64 C 157.34 224.60 177.10 222.32 194.08 214.07 C 212.07 205.53 226.90 190.55 235.31 172.50 C 243.83 154.45 245.73 133.38 240.57 114.09 C 235.87 96.14 225.23 79.86 210.74 68.27 C 208.01 65.96 204.75 63.76 200.99 64.10 C 194.07 64.06 188.36 71.41 190.21 78.12 C 190.84 81.75 193.77 84.26 196.57 86.35 C 214.66 100.50 223.76 125.02 219.39 147.57 C 216.30 164.80 205.63 180.46 190.80 189.75 C 178.21 197.78 162.71 201.04 147.94 198.90 C 130.91 196.63 115.09 186.93 105.16 172.93 C 96.09 160.38 91.98 144.42 93.72 129.05 C 95.38 111.88 104.62 95.68 118.42 85.37 C 122.02 82.91 124.25 78.45 123.52 74.08 C 122.70 67.65 115.75 62.85 109.45 64.55 Z" />
</g>
</svg>
