<?xml version="1.0" encoding="UTF-8" ?>
<!DOCTYPE svg PUBLIC "-//W3C//DTD SVG 1.1//EN" "http://www.w3.org/Graphics/SVG/1.1/DTD/svg11.dtd">
<svg width="1087pt" height="1216pt" viewBox="0 0 1087 1216" version="1.1" xmlns="http://www.w3.org/2000/svg">
<g id="#202c45ff">
<path fill="#202c45" opacity="1.00" d=" M 505.12 10.19 C 527.73 -2.72 556.92 -3.06 579.89 9.17 C 685.76 68.24 791.33 127.83 897.23 186.85 C 902.69 189.75 908.58 192.68 912.08 198.01 C 915.35 203.30 915.57 210.68 911.81 215.79 C 908.36 220.77 902.97 223.88 897.80 226.79 C 862.40 246.37 827.11 266.18 791.69 285.72 C 788.11 287.14 783.93 287.18 780.38 285.68 C 714.01 248.25 647.41 211.20 581.03 173.79 C 561.72 163.07 537.70 161.18 517.00 168.92 C 510.43 171.32 504.46 175.03 498.30 178.28 C 431.82 214.44 366.86 253.36 299.71 288.31 C 258.95 266.19 218.72 243.12 178.03 220.86 C 171.55 217.40 167.75 208.90 171.01 202.00 C 174.65 194.00 183.33 190.68 190.38 186.43 C 295.41 127.89 400.18 68.89 505.12 10.19 Z" />
<path fill="#202c45" opacity="1.00" d=" M 219.47 887.52 C 234.13 885.26 247.35 893.47 259.38 900.67 C 341.83 946.88 424.28 993.11 506.73 1039.32 C 523.09 1048.21 542.75 1050.79 560.87 1046.53 C 570.56 1044.45 579.29 1039.57 587.95 1034.95 C 670.43 988.79 752.82 942.49 835.30 896.33 C 840.14 893.54 845.05 890.67 850.58 889.48 C 861.15 886.90 872.76 888.28 882.19 893.82 C 917.62 913.62 953.59 932.43 989.19 951.91 C 998.11 956.96 997.71 971.03 989.87 976.89 C 854.20 1053.29 718.19 1129.14 582.41 1205.36 C 566.04 1214.62 546.38 1217.71 527.94 1214.16 C 519.49 1212.54 511.46 1209.23 503.93 1205.14 C 372.18 1131.09 240.26 1057.34 108.41 983.47 C 105.73 981.95 102.75 980.74 100.71 978.35 C 94.71 971.75 94.84 959.75 102.31 954.31 C 136.36 934.42 169.77 913.44 204.20 894.20 C 209.09 891.57 213.80 888.18 219.47 887.52 Z" />
</g>
<g id="#00d2a7ff">
<path fill="#00d2a7" opacity="1.00" d=" M 987.23 275.17 C 1003.74 270.45 1021.81 270.90 1037.88 277.11 C 1064.29 286.93 1084.44 312.68 1086.24 340.98 C 1086.26 518.66 1086.25 696.35 1086.25 874.03 C 1086.07 882.11 1082.09 890.64 1074.67 894.42 C 1069.67 895.97 1064.27 895.19 1059.34 893.73 C 1050.97 891.11 1043.71 886.03 1035.97 882.06 C 1001.76 863.74 967.84 844.85 933.44 826.89 C 933.56 709.66 933.48 592.44 933.48 475.21 C 819.37 539.24 705.20 603.17 591.05 667.13 C 585.25 670.25 579.70 673.87 573.57 676.32 C 555.28 683.81 534.15 684.22 515.66 677.20 C 508.71 674.63 502.45 670.62 495.96 667.13 C 381.70 603.46 267.86 539.01 153.48 475.52 C 153.42 501.34 153.73 527.18 153.25 552.99 C 153.24 629.66 153.26 706.34 153.24 783.01 C 153.75 797.45 153.41 811.90 153.48 826.34 C 119.19 847.61 84.00 867.38 49.60 888.47 C 39.71 895.25 26.78 898.45 15.12 894.75 C 6.08 891.77 0.79 882.14 0.51 873.01 C 0.48 697.66 0.52 522.31 0.49 346.96 C -0.01 330.45 5.94 314.01 16.23 301.16 C 26.76 287.74 42.24 278.41 58.93 274.99 C 80.91 270.45 104.41 274.93 123.63 286.36 C 263.43 364.91 403.40 443.16 543.01 522.04 C 679.06 446.23 814.48 369.31 950.39 293.28 C 962.50 286.92 973.88 278.79 987.23 275.17 Z" />
</g>
</svg>
